<svg width="394" height="108" viewBox="0 0 394 108" fill="none" xmlns="http://www.w3.org/2000/svg">
<path d="M125.52 98.9414H125.367C124.68 98.8789 124.039 98.5898 123.445 98.0742C123.234 97.9023 123.043 97.6875 122.871 97.4297C122.691 97.1641 122.602 96.8711 122.602 96.5508C122.602 96.4258 123.012 96.2852 123.832 96.1289L123.809 96.3398C123.809 96.4336 123.824 96.5352 123.855 96.6445C123.949 96.957 124.102 97.2227 124.312 97.4414C124.523 97.6523 124.711 97.8125 124.875 97.9219C125.367 98.2578 125.863 98.4258 126.363 98.4258C126.723 98.2461 127.023 97.8516 127.266 97.2422C127.461 96.7266 127.652 96.2148 127.84 95.707L127.992 95.2383L128.051 95.0977C129.254 91.6445 130.012 89.4531 130.324 88.5234C130.301 88.5391 130.203 88.5703 130.031 88.6172L129.668 88.6992C129.465 88.793 129.199 88.8398 128.871 88.8398C128.293 88.8398 127.82 88.6172 127.453 88.1719C127.039 87.6484 126.832 87.0156 126.832 86.2734C126.832 85.0312 127.328 84.0781 128.32 83.4141C128.742 83.1484 129.188 82.9375 129.656 82.7812C130.133 82.625 130.609 82.4922 131.086 82.3828C131.461 82.2969 131.812 82.2305 132.141 82.1836C132.469 82.1289 132.832 82.1016 133.23 82.1016C133.746 82.1016 134.422 82.1797 135.258 82.3359L135.691 82.418C137.473 82.7539 139.105 82.9219 140.59 82.9219C141.73 82.9219 142.875 82.7969 144.023 82.5469L144.516 82.3828C145.258 82.1172 145.938 81.7891 146.555 81.3984C146.641 81.3516 146.734 81.3203 146.836 81.3047L147.504 81.1406L147.645 81.3984C146.738 81.9609 145.707 82.4062 144.551 82.7344C143.52 83.0156 142.621 83.2031 141.855 83.2969C141.371 84.7578 140.91 86.1797 140.473 87.5625C139.496 90.6953 138.879 93.2617 138.621 95.2617C138.598 95.5117 138.586 95.7461 138.586 95.9648C138.586 97.0039 138.852 97.6992 139.383 98.0508C139.703 98.2461 140.051 98.3438 140.426 98.3438C140.52 98.3438 140.566 98.3477 140.566 98.3555C140.738 98.293 140.883 98.2344 141 98.1797C141.414 97.9609 141.691 97.8047 141.832 97.7109C141.996 97.6406 142.113 97.6055 142.184 97.6055L142.781 97.4648L142.922 97.6992C142.531 97.9336 142.16 98.1289 141.809 98.2852C141.457 98.4414 141.094 98.5664 140.719 98.6602L140.648 98.6836C140.305 98.7852 139.949 98.8359 139.582 98.8359C139.262 98.8359 138.934 98.7695 138.598 98.6367C137.785 98.2539 137.379 97.4258 137.379 96.1523C137.379 95.5352 137.473 94.793 137.66 93.9258L137.672 93.8555C137.805 93.1602 137.965 92.4453 138.152 91.7109C138.488 90.3281 138.871 88.957 139.301 87.5977C139.73 86.2383 140.168 84.8984 140.613 83.5781L140.66 83.4141C140.41 83.4297 140.105 83.4375 139.746 83.4375C138.785 83.4375 137.855 83.3828 136.957 83.2734C136.059 83.1562 135.234 83.0234 134.484 82.875C134.086 82.7969 133.75 82.7383 133.477 82.6992C133.039 83.957 132.684 85 132.41 85.8281C131.207 89.3281 129.992 92.8164 128.766 96.293C128.656 96.6211 128.531 96.9453 128.391 97.2656C128.258 97.5781 128.07 97.8594 127.828 98.1094C127.57 98.375 127.316 98.5508 127.066 98.6367C126.824 98.7148 126.523 98.7891 126.164 98.8594C125.945 98.9141 125.73 98.9414 125.52 98.9414ZM129.715 88.3359C130.012 88.1953 130.262 88.0078 130.465 87.7734C130.668 87.5391 130.77 87.2461 130.77 86.8945C130.77 86.7383 130.746 86.5664 130.699 86.3789C130.723 86.3242 130.82 86.2852 130.992 86.2617L131.109 86.2383L131.531 85.0547L132.352 82.6055C131.867 82.6055 131.359 82.6641 130.828 82.7812L130.699 82.8281C130.199 82.9688 129.738 83.1836 129.316 83.4727C128.465 84.0742 128.039 84.9336 128.039 86.0508C128.039 86.707 128.215 87.2812 128.566 87.7734C128.855 88.1484 129.238 88.3359 129.715 88.3359ZM146.039 107.578C145.492 107.578 145.086 107.293 144.82 106.723C144.695 106.418 144.633 106.055 144.633 105.633C144.633 104.352 145.078 103.168 145.969 102.082C146.391 101.59 146.84 101.164 147.316 100.805C147.793 100.445 148.238 100.141 148.652 99.8906C149.262 99.5234 149.855 99.1953 150.434 98.9062L151.043 97.043C150.41 97.4023 149.59 97.7305 148.582 98.0273C148.395 98.0742 148.211 98.1172 148.031 98.1562C147.852 98.1953 147.66 98.2148 147.457 98.2148C146.785 98.2148 146.227 97.9219 145.781 97.3359C145.289 96.6172 145.043 95.7695 145.043 94.793C145.043 94.6367 145.051 94.4727 145.066 94.3008C145.129 93.7148 145.246 93.1602 145.418 92.6367C145.59 92.1133 145.773 91.6445 145.969 91.2305C146.055 91.0352 146.145 90.8359 146.238 90.6328L146.613 89.8828L146.824 89.4727L146.016 89.7305L145.43 89.8828C145.359 89.8906 145.246 89.9258 145.09 89.9883L145.02 89.6719L147.574 88.9336C147.605 88.9102 147.664 88.8984 147.75 88.8984L148.055 88.8047L148.16 89.0625C148.113 89.1016 148.051 89.1992 147.973 89.3555C147.84 89.668 147.699 89.9805 147.551 90.293C146.691 91.9648 146.262 93.4141 146.262 94.6406C146.262 95.4609 146.457 96.1875 146.848 96.8203C146.918 96.9453 147.02 97.082 147.152 97.2305C147.293 97.3711 147.461 97.4883 147.656 97.582C147.828 97.6602 148.016 97.7031 148.219 97.7109L148.465 97.6992C149.387 97.3242 150.277 96.8828 151.137 96.375L151.312 96.293L151.711 95.1797C152.422 93.2266 152.98 91.2852 153.387 89.3555C153.387 89.2695 153.805 89.1445 154.641 88.9805L154.359 90.2227C153.984 91.8242 153.414 93.6758 152.648 95.7773C152.484 96.207 152.195 97.0508 151.781 98.3086C151.914 98.2539 152.109 98.1797 152.367 98.0859C153.961 97.5312 155.395 97.2109 156.668 97.125L156.68 97.3945C156.562 97.418 156.484 97.4375 156.445 97.4531L156.375 97.4766C156.039 97.5781 155.84 97.6328 155.777 97.6406C155.207 97.6797 154.688 97.7539 154.219 97.8633C154.062 97.9102 153.91 97.957 153.762 98.0039C153.137 98.1836 152.414 98.4727 151.594 98.8711L150.48 102.516C150.332 103.023 150.164 103.527 149.977 104.027C149.797 104.535 149.574 105.02 149.309 105.48C148.996 105.996 148.641 106.418 148.242 106.746C147.773 107.113 147.238 107.359 146.637 107.484L146.484 107.52C146.367 107.559 146.219 107.578 146.039 107.578ZM146.707 107.062C146.887 106.961 147.062 106.832 147.234 106.676C147.633 106.301 147.953 105.887 148.195 105.434C148.445 104.988 148.637 104.582 148.77 104.215C148.98 103.629 149.258 102.773 149.602 101.648L150.223 99.5859C149.574 99.9375 148.957 100.348 148.371 100.816C146.691 102.129 145.852 103.633 145.852 105.328C145.852 105.531 145.867 105.734 145.898 105.938C145.906 106.094 145.957 106.285 146.051 106.512C146.152 106.746 146.324 106.918 146.566 107.027C146.605 107.051 146.652 107.062 146.707 107.062ZM162.738 99.0586L162.621 99.0352C162.223 98.6602 162.023 98.1094 162.023 97.3828C162.055 96.7109 162.203 96.0312 162.469 95.3438C162.609 94.9531 162.754 94.5703 162.902 94.1953C163.09 93.8281 163.312 93.2031 163.57 92.3203C163.727 91.7812 163.805 91.2617 163.805 90.7617C163.805 90.5117 163.781 90.2656 163.734 90.0234C163.695 89.7812 163.605 89.5898 163.465 89.4492C163.41 89.4023 163.344 89.3711 163.266 89.3555C163.188 89.3398 163.109 89.332 163.031 89.332C162.75 89.332 162.559 89.3594 162.457 89.4141L162.316 89.4609C161.598 89.7188 160.988 90 160.488 90.3047C159.801 92.1953 158.852 94.6445 157.641 97.6523L157.535 97.9219C157.316 98.5234 157.152 98.8398 157.043 98.8711C156.934 98.8945 156.645 98.957 156.176 99.0586L156 98.8711C156.164 98.5195 156.309 98.1641 156.434 97.8047C157.371 95.4375 158.094 93.5977 158.602 92.2852C159.172 90.7539 159.559 89.7617 159.762 89.3086L158.168 89.625L158.109 89.3203C158.258 89.2969 158.398 89.2656 158.531 89.2266C158.664 89.1797 159.496 89 161.027 88.6875C160.949 89.0156 160.867 89.2891 160.781 89.5078L160.734 89.625C160.992 89.5156 161.352 89.3945 161.812 89.2617C162.672 88.9648 163.348 88.8164 163.84 88.8164C164.051 88.8164 164.25 88.8594 164.438 88.9453C164.672 89.0859 164.824 89.2891 164.895 89.5547C164.973 89.8203 165.012 90.043 165.012 90.2227C165.785 89.8242 166.508 89.5156 167.18 89.2969C168.062 89.0078 168.707 88.8633 169.113 88.8633C169.457 88.8633 169.711 88.9492 169.875 89.1211C170.039 89.293 170.145 89.4883 170.191 89.707C170.246 89.918 170.277 90.1094 170.285 90.2812L170.297 90.5156C170.297 90.8672 170.262 91.2031 170.191 91.5234C170.129 91.8438 170.055 92.1367 169.969 92.4023C169.891 92.6523 169.633 93.375 169.195 94.5703C168.93 95.25 168.723 95.9414 168.574 96.6445C168.52 96.8945 168.492 97.1367 168.492 97.3711C168.492 97.6055 168.531 97.8125 168.609 97.9922C168.695 98.1719 168.828 98.2969 169.008 98.3672C169.133 98.4062 169.277 98.4258 169.441 98.4258C169.535 98.4258 169.625 98.418 169.711 98.4023L169.781 98.3789C169.82 98.3711 169.852 98.3555 169.875 98.332C170.219 98.1992 170.621 97.9805 171.082 97.6758C171.371 97.5039 171.578 97.3945 171.703 97.3477L172.629 97.1133L172.711 97.3945C172.531 97.457 172.367 97.5391 172.219 97.6406L172.055 97.7344C171.258 98.2266 170.523 98.5547 169.852 98.7188C169.711 98.7422 169.578 98.7734 169.453 98.8125C169.227 98.8984 168.953 98.9414 168.633 98.9414L168.457 98.9297C167.676 98.8516 167.285 98.4219 167.285 97.6406C167.285 97.4844 167.293 97.3281 167.309 97.1719C167.41 96.4531 167.59 95.7734 167.848 95.1328L168.199 94.1719C168.41 93.6484 168.602 93.1133 168.773 92.5664C168.945 92.0195 169.047 91.4648 169.078 90.9023V90.7148C169.078 89.957 168.914 89.5234 168.586 89.4141C168.484 89.3828 168.387 89.3672 168.293 89.3672L168.059 89.3906L167.906 89.4258L167.754 89.4844C166.684 89.8828 165.766 90.3438 165 90.8672C164.953 91.6641 164.664 92.707 164.133 93.9961L164.109 94.0547C163.93 94.4844 163.766 94.918 163.617 95.3555C163.43 95.8555 163.305 96.4102 163.242 97.0195V97.1602C163.242 97.832 163.402 98.3164 163.723 98.6133C163.621 98.7617 163.566 98.8398 163.559 98.8477L163.23 98.9531C162.965 99.0234 162.801 99.0586 162.738 99.0586ZM175.852 98.9414C175.523 98.9414 175.188 98.8945 174.844 98.8008C174.5 98.707 174.172 98.5391 173.859 98.2969C173.383 97.8828 173.047 97.3828 172.852 96.7969C172.664 96.2109 172.57 95.6211 172.57 95.0273C172.57 94.5273 172.621 94.0547 172.723 93.6094C172.957 92.5625 173.406 91.6367 174.07 90.832C174.422 90.4023 174.809 90.0586 175.23 89.8008C175.801 89.4961 176.387 89.2773 176.988 89.1445L177.281 89.0859C177.508 89.0312 177.727 88.9883 177.938 88.957C178.156 88.9258 178.379 88.9102 178.605 88.9102C179.371 88.9102 180 89.1055 180.492 89.4961C180.75 89.707 180.941 89.957 181.066 90.2461C181.199 90.5273 181.266 90.832 181.266 91.1602C181.266 92.457 180.402 93.4531 178.676 94.1484C177.973 94.4062 177.316 94.6094 176.707 94.7578C175.973 94.9531 175.293 95.0547 174.668 95.0625V94.7695L174.961 94.7227C175.305 94.6133 175.516 94.5586 175.594 94.5586C175.875 94.5508 176.148 94.5234 176.414 94.4766L176.473 94.4648C176.785 94.4258 177.191 94.3047 177.691 94.1016L177.75 94.0781C178.227 93.8828 178.617 93.668 178.922 93.4336C179.672 92.832 180.047 92.1445 180.047 91.3711V91.2656C179.961 90.3984 179.504 89.8242 178.676 89.543C178.402 89.457 178.102 89.4141 177.773 89.4141C177.156 89.4141 176.668 89.5469 176.309 89.8125C175.613 90.25 175.043 90.8633 174.598 91.6523C174.16 92.4336 173.898 93.2969 173.812 94.2422L173.801 94.7344C173.801 95.0312 173.832 95.3867 173.895 95.8008C173.957 96.2148 174.086 96.6211 174.281 97.0195C174.484 97.418 174.777 97.7539 175.16 98.0273C175.395 98.1758 175.637 98.2812 175.887 98.3438C176.145 98.4062 176.398 98.4375 176.648 98.4375C177.57 98.4375 178.582 97.9688 179.684 97.0312C179.754 96.9844 179.902 96.9336 180.129 96.8789C180.363 96.8242 180.539 96.7812 180.656 96.75L180.82 96.9844C180.094 97.6094 179.332 98.0703 178.535 98.3672C177.488 98.75 176.594 98.9414 175.852 98.9414ZM196.922 98.9414C196.422 98.9414 195.949 98.8047 195.504 98.5312C194.762 98.0625 194.328 97.3633 194.203 96.4336C193.508 97.7383 192.605 98.5 191.496 98.7188L191.355 98.7656C191.152 98.8516 190.875 98.9023 190.523 98.918C190.094 98.918 189.715 98.7852 189.387 98.5195C189.059 98.2461 188.816 97.9453 188.66 97.6172C188.496 97.2969 188.406 97.0352 188.391 96.832C188 97.5039 187.465 98.0352 186.785 98.4258C186.348 98.6367 185.863 98.793 185.332 98.8945C185.215 98.918 185.098 98.9297 184.98 98.9297C184.566 98.9297 184.203 98.8164 183.891 98.5898C183.586 98.3555 183.352 98.0977 183.188 97.8164C183.023 97.5273 182.91 97.2227 182.848 96.9023C182.793 96.582 182.766 96.2656 182.766 95.9531L182.789 95.3789C182.914 94.0508 183.551 92.2656 184.699 90.0234L185.016 89.4141L184.98 89.4258C184.457 89.582 183.738 89.6836 182.824 89.7305L182.801 89.4492C182.902 89.4336 183.094 89.3828 183.375 89.2969C183.477 89.25 183.668 89.2188 183.949 89.2031C184.23 89.1875 184.598 89.1484 185.051 89.0859C185.098 89.0625 185.152 89.0469 185.215 89.0391C185.457 88.9609 185.723 88.9102 186.012 88.8867C186.129 88.8867 186.234 88.918 186.328 88.9805L186.293 89.1562C186.27 89.2266 186.227 89.3008 186.164 89.3789C186.062 89.5508 185.93 89.8008 185.766 90.1289C184.641 92.3477 184.051 94.0742 183.996 95.3086L183.984 95.7539C183.984 96.043 184.012 96.3438 184.066 96.6562C184.121 96.9688 184.234 97.2617 184.406 97.5352C184.602 97.8477 184.852 98.0898 185.156 98.2617C185.352 98.3633 185.523 98.4141 185.672 98.4141C186.219 98.1328 186.707 97.668 187.137 97.0195C187.863 95.8789 188.34 94.918 188.566 94.1367L188.742 93.5625L188.766 93.5039C189.156 92.3086 189.75 90.9648 190.547 89.4727L190.582 89.4258L190.594 89.4023C190.562 89.4102 190.383 89.457 190.055 89.543C189.648 89.6211 189.094 89.6797 188.391 89.7188L188.379 89.4375C188.496 89.4219 188.598 89.3984 188.684 89.3672L188.941 89.2852C189.051 89.2305 189.168 89.2031 189.293 89.2031C190.004 89.1797 190.508 89.1172 190.805 89.0156C191.039 88.9375 191.301 88.8906 191.59 88.875C191.793 88.875 191.898 88.9219 191.906 89.0156C191.906 89.0781 191.895 89.1172 191.871 89.1328C191.848 89.1953 191.812 89.2617 191.766 89.332C191.656 89.4961 191.523 89.7422 191.367 90.0703C190.719 91.3438 190.234 92.4883 189.914 93.5039C189.664 94.2148 189.539 94.9609 189.539 95.7422C189.539 96.0078 189.562 96.2812 189.609 96.5625C189.656 96.8359 189.742 97.0977 189.867 97.3477C190.016 97.6289 190.215 97.875 190.465 98.0859C190.723 98.2969 190.992 98.4023 191.273 98.4023L191.32 98.3906C191.766 98.125 192.18 97.7344 192.562 97.2188C193.25 96.2891 193.84 95.0547 194.332 93.5156C194.426 93.125 194.531 92.7422 194.648 92.3672L194.906 91.5117C195.062 90.8711 195.301 90.2031 195.621 89.5078C195.668 89.4297 196.012 89.3203 196.652 89.1797L196.828 89.3789C196.508 90.0742 196.254 90.793 196.066 91.5352L195.855 92.2734C195.777 92.5469 195.676 92.8711 195.551 93.2461C195.387 93.8867 195.305 94.4648 195.305 94.9805L195.316 95.2617C195.332 95.7461 195.418 96.2422 195.574 96.75C195.73 97.25 196.027 97.6719 196.465 98.0156C196.848 98.2891 197.289 98.4258 197.789 98.4258C198.188 98.2461 198.629 98 199.113 97.6875C199.176 97.6562 199.234 97.6172 199.289 97.5703L199.652 97.3359C199.754 97.2969 199.906 97.2539 200.109 97.207C200.312 97.1602 200.469 97.1094 200.578 97.0547L200.73 97.3242C200.605 97.4102 200.492 97.4883 200.391 97.5586L200.18 97.6992C199.43 98.2227 198.695 98.5703 197.977 98.7422L197.707 98.8125C197.457 98.8984 197.195 98.9414 196.922 98.9414ZM202.477 98.9414C202.148 98.9414 201.812 98.8945 201.469 98.8008C201.125 98.707 200.797 98.5391 200.484 98.2969C200.008 97.8828 199.672 97.3828 199.477 96.7969C199.289 96.2109 199.195 95.6211 199.195 95.0273C199.195 94.5273 199.246 94.0547 199.348 93.6094C199.582 92.5625 200.031 91.6367 200.695 90.832C201.047 90.4023 201.434 90.0586 201.855 89.8008C202.426 89.4961 203.012 89.2773 203.613 89.1445L203.906 89.0859C204.133 89.0312 204.352 88.9883 204.562 88.957C204.781 88.9258 205.004 88.9102 205.23 88.9102C205.996 88.9102 206.625 89.1055 207.117 89.4961C207.375 89.707 207.566 89.957 207.691 90.2461C207.824 90.5273 207.891 90.832 207.891 91.1602C207.891 92.457 207.027 93.4531 205.301 94.1484C204.598 94.4062 203.941 94.6094 203.332 94.7578C202.598 94.9531 201.918 95.0547 201.293 95.0625V94.7695L201.586 94.7227C201.93 94.6133 202.141 94.5586 202.219 94.5586C202.5 94.5508 202.773 94.5234 203.039 94.4766L203.098 94.4648C203.41 94.4258 203.816 94.3047 204.316 94.1016L204.375 94.0781C204.852 93.8828 205.242 93.668 205.547 93.4336C206.297 92.832 206.672 92.1445 206.672 91.3711V91.2656C206.586 90.3984 206.129 89.8242 205.301 89.543C205.027 89.457 204.727 89.4141 204.398 89.4141C203.781 89.4141 203.293 89.5469 202.934 89.8125C202.238 90.25 201.668 90.8633 201.223 91.6523C200.785 92.4336 200.523 93.2969 200.438 94.2422L200.426 94.7344C200.426 95.0312 200.457 95.3867 200.52 95.8008C200.582 96.2148 200.711 96.6211 200.906 97.0195C201.109 97.418 201.402 97.7539 201.785 98.0273C202.02 98.1758 202.262 98.2812 202.512 98.3438C202.77 98.4062 203.023 98.4375 203.273 98.4375C204.195 98.4375 205.207 97.9688 206.309 97.0312C206.379 96.9844 206.527 96.9336 206.754 96.8789C206.988 96.8242 207.164 96.7812 207.281 96.75L207.445 96.9844C206.719 97.6094 205.957 98.0703 205.16 98.3672C204.113 98.75 203.219 98.9414 202.477 98.9414ZM213.07 98.9414C212.867 98.9414 212.668 98.9258 212.473 98.8945C211.684 98.7227 211.012 98.3281 210.457 97.7109C209.902 97.0859 209.562 96.3633 209.438 95.543C209.406 95.3164 209.391 95.0781 209.391 94.8281C209.391 94.2812 209.465 93.7188 209.613 93.1406C210.02 91.6328 210.84 90.4961 212.074 89.7305C212.668 89.3633 213.457 89.082 214.441 88.8867C214.699 88.8398 214.953 88.8164 215.203 88.8164C215.859 88.8164 216.457 88.9766 216.996 89.2969C217.645 89.7422 218.016 90.3945 218.109 91.2539C218.109 91.3789 217.703 91.5117 216.891 91.6523L216.902 91.5586C216.902 91.5352 216.883 91.4492 216.844 91.3008C216.805 91.1445 216.742 90.9648 216.656 90.7617C216.57 90.5508 216.461 90.3516 216.328 90.1641C216.195 89.9688 216.043 89.8125 215.871 89.6953C215.449 89.4531 214.934 89.332 214.324 89.332C214.184 89.332 214.047 89.3398 213.914 89.3555C212.82 89.7852 211.961 90.5586 211.336 91.6758C210.852 92.582 210.609 93.582 210.609 94.6758C210.609 95.0508 210.648 95.3945 210.727 95.707C210.898 96.3867 211.227 96.9727 211.711 97.4648C212.203 97.9492 212.762 98.2539 213.387 98.3789C213.543 98.418 213.707 98.4375 213.879 98.4375C214.277 98.4375 214.578 98.375 214.781 98.25L214.957 98.1562C215.707 97.7969 216.375 97.4062 216.961 96.9844C217.117 96.8516 217.48 96.7422 218.051 96.6562L218.18 96.9023L217.828 97.125C217.086 97.6406 216.301 98.0703 215.473 98.4141C214.512 98.7656 213.711 98.9414 213.07 98.9414ZM226.254 99.0586L226.137 99.0352C225.738 98.6602 225.539 98.1094 225.539 97.3828C225.57 96.7109 225.719 96.0312 225.984 95.3438C226.125 94.9531 226.27 94.5703 226.418 94.1953C226.605 93.8281 226.828 93.2031 227.086 92.3203C227.242 91.7812 227.32 91.2617 227.32 90.7617C227.32 90.5117 227.297 90.2656 227.25 90.0234C227.211 89.7812 227.121 89.5898 226.98 89.4492C226.926 89.4023 226.859 89.3711 226.781 89.3555C226.703 89.3398 226.625 89.332 226.547 89.332C226.266 89.332 226.074 89.3594 225.973 89.4141L225.832 89.4609C225.113 89.7188 224.504 90 224.004 90.3047C223.316 92.1953 222.367 94.6445 221.156 97.6523L221.051 97.9219C220.832 98.5234 220.668 98.8398 220.559 98.8711C220.449 98.8945 220.16 98.957 219.691 99.0586L219.516 98.8711C219.68 98.5195 219.824 98.1641 219.949 97.8047C220.887 95.4375 221.609 93.5977 222.117 92.2852C222.688 90.7539 223.074 89.7617 223.277 89.3086L221.684 89.625L221.625 89.3203C221.773 89.2969 221.914 89.2656 222.047 89.2266C222.18 89.1797 223.012 89 224.543 88.6875C224.465 89.0156 224.383 89.2891 224.297 89.5078L224.25 89.625C224.508 89.5156 224.867 89.3945 225.328 89.2617C226.188 88.9648 226.863 88.8164 227.355 88.8164C227.566 88.8164 227.766 88.8594 227.953 88.9453C228.188 89.0859 228.34 89.2891 228.41 89.5547C228.488 89.8203 228.527 90.043 228.527 90.2227C229.301 89.8242 230.023 89.5156 230.695 89.2969C231.578 89.0078 232.223 88.8633 232.629 88.8633C232.973 88.8633 233.227 88.9492 233.391 89.1211C233.555 89.293 233.66 89.4883 233.707 89.707C233.762 89.918 233.793 90.1094 233.801 90.2812L233.812 90.5156C233.812 90.8672 233.777 91.2031 233.707 91.5234C233.645 91.8438 233.57 92.1367 233.484 92.4023C233.406 92.6523 233.148 93.375 232.711 94.5703C232.445 95.25 232.238 95.9414 232.09 96.6445C232.035 96.8945 232.008 97.1367 232.008 97.3711C232.008 97.6055 232.047 97.8125 232.125 97.9922C232.211 98.1719 232.344 98.2969 232.523 98.3672C232.648 98.4062 232.793 98.4258 232.957 98.4258C233.051 98.4258 233.141 98.418 233.227 98.4023L233.297 98.3789C233.336 98.3711 233.367 98.3555 233.391 98.332C233.734 98.1992 234.137 97.9805 234.598 97.6758C234.887 97.5039 235.094 97.3945 235.219 97.3477L236.145 97.1133L236.227 97.3945C236.047 97.457 235.883 97.5391 235.734 97.6406L235.57 97.7344C234.773 98.2266 234.039 98.5547 233.367 98.7188C233.227 98.7422 233.094 98.7734 232.969 98.8125C232.742 98.8984 232.469 98.9414 232.148 98.9414L231.973 98.9297C231.191 98.8516 230.801 98.4219 230.801 97.6406C230.801 97.4844 230.809 97.3281 230.824 97.1719C230.926 96.4531 231.105 95.7734 231.363 95.1328L231.715 94.1719C231.926 93.6484 232.117 93.1133 232.289 92.5664C232.461 92.0195 232.562 91.4648 232.594 90.9023V90.7148C232.594 89.957 232.43 89.5234 232.102 89.4141C232 89.3828 231.902 89.3672 231.809 89.3672L231.574 89.3906L231.422 89.4258L231.27 89.4844C230.199 89.8828 229.281 90.3438 228.516 90.8672C228.469 91.6641 228.18 92.707 227.648 93.9961L227.625 94.0547C227.445 94.4844 227.281 94.918 227.133 95.3555C226.945 95.8555 226.82 96.4102 226.758 97.0195V97.1602C226.758 97.832 226.918 98.3164 227.238 98.6133C227.137 98.7617 227.082 98.8398 227.074 98.8477L226.746 98.9531C226.48 99.0234 226.316 99.0586 226.254 99.0586ZM239.062 98.9414C238.094 98.9414 237.355 98.5312 236.848 97.7109C236.41 96.9844 236.164 96.0312 236.109 94.8516L236.098 94.3945C236.098 92.957 236.43 91.4258 237.094 89.8008L236.707 89.8125L236.086 89.7891L236.098 89.5195C236.395 89.4414 236.57 89.3867 236.625 89.3555C236.766 89.3008 236.898 89.2734 237.023 89.2734L237.316 89.2852C237.863 88.0586 238.398 87.0039 238.922 86.1211C239.945 84.3945 240.965 83.2969 241.98 82.8281C242.707 82.5234 243.359 82.3711 243.938 82.3711C244.133 82.3711 244.344 82.3984 244.57 82.4531C244.805 82.5078 245.023 82.6094 245.227 82.7578C245.414 82.8984 245.543 83.0547 245.613 83.2266C245.684 83.3906 245.719 83.5625 245.719 83.7422C245.719 84.0234 245.668 84.3008 245.566 84.5742C245.355 85.2539 245.008 85.8945 244.523 86.4961C243.195 88.0977 241.145 89.1484 238.371 89.6484L238.289 89.6602L238.055 90.293C237.562 91.6758 237.316 92.9766 237.316 94.1953C237.316 94.7031 237.359 95.1992 237.445 95.6836C237.641 96.7461 237.992 97.5 238.5 97.9453C238.867 98.2656 239.32 98.4258 239.859 98.4258L240.234 98.4023C241.586 97.8711 242.656 96.8086 243.445 95.2148C243.633 94.8242 243.801 94.3867 243.949 93.9023C244.105 93.4102 244.184 92.9141 244.184 92.4141C244.184 91.1641 243.688 90.3477 242.695 89.9648C242.383 89.8477 242.047 89.7891 241.688 89.7891C241.375 89.8047 241.137 89.8281 240.973 89.8594C240.746 89.9297 240.57 89.9922 240.445 90.0469C240.336 90.0859 240.223 90.1172 240.105 90.1406C239.871 90.1875 239.672 90.2461 239.508 90.3164L239.391 90.0234C239.922 89.8125 240.48 89.6367 241.066 89.4961C241.59 89.3555 242.074 89.2852 242.52 89.2852C243.145 89.2852 243.688 89.4258 244.148 89.707C244.969 90.2305 245.379 91.0508 245.379 92.168C245.379 92.6133 245.312 93.0938 245.18 93.6094C244.961 94.4766 244.594 95.293 244.078 96.0586C243.25 97.293 242.23 98.1172 241.02 98.5312C240.285 98.8047 239.633 98.9414 239.062 98.9414ZM238.477 89.2266L238.875 89.1797C239.047 89.1562 239.219 89.125 239.391 89.0859C240.055 88.8984 240.707 88.6172 241.348 88.2422C242.973 87.2891 243.988 86.0781 244.395 84.6094C244.465 84.3828 244.5 84.1602 244.5 83.9414C244.5 83.8633 244.496 83.7891 244.488 83.7188C244.379 83.2969 244.059 83.0312 243.527 82.9219C243.402 82.8984 243.273 82.8867 243.141 82.8867L242.93 82.8984C242.773 82.9766 242.609 83.0742 242.438 83.1914C242.062 83.4727 241.723 83.793 241.418 84.1523C241.113 84.5039 240.852 84.8438 240.633 85.1719C239.898 86.25 239.18 87.6016 238.477 89.2266ZM255.363 98.9414C254.863 98.9414 254.391 98.8047 253.945 98.5312C253.195 98.0625 252.762 97.3633 252.645 96.4336C251.988 97.6445 251.16 98.3867 250.16 98.6602L249.562 98.8242C249.289 98.8867 249.07 98.9219 248.906 98.9297C248.492 98.9297 248.105 98.8242 247.746 98.6133C247.387 98.4023 247.102 98.1211 246.891 97.7695C246.734 97.4805 246.629 97.1797 246.574 96.8672C246.52 96.5469 246.492 96.2344 246.492 95.9297C246.492 95.7188 246.5 95.5156 246.516 95.3203C246.656 93.9844 247.293 92.2148 248.426 90.0117C248.598 89.6445 248.703 89.4453 248.742 89.4141L248.227 89.543C247.812 89.6211 247.254 89.6797 246.551 89.7188L246.539 89.4375C246.664 89.4219 246.762 89.3984 246.832 89.3672C247.184 89.2578 247.391 89.2031 247.453 89.2031C247.93 89.1875 248.348 89.1484 248.707 89.0859L248.871 89.0508L248.93 89.0273C249.203 88.9414 249.477 88.8906 249.75 88.875C249.859 88.875 249.945 88.8945 250.008 88.9336L250.031 88.957C250.055 88.9727 250.066 88.9922 250.066 89.0156L250.078 89.0391C250.078 89.0703 250.062 89.0977 250.031 89.1211C249.984 89.2305 249.934 89.3281 249.879 89.4141L249.844 89.4609C249.031 90.9688 248.441 92.332 248.074 93.5508C247.863 94.207 247.746 94.7734 247.723 95.25L247.711 95.6953C247.711 95.9844 247.734 96.2852 247.781 96.5977C247.836 96.9102 247.941 97.1992 248.098 97.4648C248.512 98.0898 249.035 98.4023 249.668 98.4023H249.715C249.863 98.3242 250.016 98.2227 250.172 98.0977C251.203 97.2617 252.066 95.7344 252.762 93.5156C252.871 93.0781 252.996 92.6406 253.137 92.2031L253.266 91.7695C253.445 91.0273 253.715 90.2734 254.074 89.5078C254.113 89.4375 254.203 89.3906 254.344 89.3672C254.484 89.3359 254.711 89.2773 255.023 89.1914L255.281 89.3438L255.258 89.3789C254.938 90.0977 254.598 91.1172 254.238 92.4375L254.004 93.2461C253.84 93.8867 253.758 94.4648 253.758 94.9805V95.2617C253.773 95.7461 253.855 96.2422 254.004 96.75C254.16 97.25 254.461 97.6719 254.906 98.0156C255.289 98.2891 255.73 98.4258 256.23 98.4258C256.637 98.2461 257.078 98 257.555 97.6875C257.797 97.5234 257.977 97.4062 258.094 97.3359C258.195 97.2969 258.348 97.2578 258.551 97.2188C258.77 97.1641 258.93 97.1094 259.031 97.0547L259.172 97.3359L258.797 97.582L258.434 97.8164C257.738 98.2695 257.062 98.5781 256.406 98.7422L256.172 98.8125C255.898 98.8984 255.629 98.9414 255.363 98.9414ZM267.891 99.0586C266.992 99.0586 266.422 98.6641 266.18 97.875C266.047 97.375 265.977 96.8672 265.969 96.3516C265.969 96.0391 265.973 95.8359 265.98 95.7422L265.887 95.8359L265.793 95.9648C264.988 96.9883 264.129 97.7344 263.215 98.2031C262.699 98.4453 262.18 98.6289 261.656 98.7539C261.445 98.8086 261.215 98.8633 260.965 98.918C260.723 98.9648 260.469 98.9883 260.203 98.9883C259.109 98.9805 258.273 98.5156 257.695 97.5938L257.613 97.4531C257.785 97.4141 257.961 97.3711 258.141 97.3242C258.422 97.2305 258.605 97.1836 258.691 97.1836C258.793 97.1836 258.855 97.2148 258.879 97.2773C258.988 97.4727 259.117 97.6406 259.266 97.7812C259.734 98.2422 260.32 98.4727 261.023 98.4727C261.344 98.457 261.559 98.4375 261.668 98.4141C262.23 98.1797 262.734 97.8867 263.18 97.5352C263.883 96.9414 264.414 96.3828 264.773 95.8594C264.414 95.9922 263.973 96.0586 263.449 96.0586C262.105 95.9961 261.227 95.3711 260.812 94.1836C260.734 93.9102 260.695 93.625 260.695 93.3281C260.695 92.5625 260.945 91.7773 261.445 90.9727C262.055 90.043 262.973 89.4102 264.199 89.0742C264.434 89.0039 264.699 88.9375 264.996 88.875C265.293 88.8125 265.594 88.7812 265.898 88.7812C266.227 88.7812 266.539 88.8398 266.836 88.957C267.141 89.0742 267.395 89.2891 267.598 89.6016C267.738 89.8281 267.836 90.0703 267.891 90.3281C267.953 90.5781 267.984 90.8281 267.984 91.0781C267.984 91.4219 267.945 91.75 267.867 92.0625C267.797 92.375 267.719 92.6445 267.633 92.8711C267.469 93.3242 267.258 93.7656 267 94.1953L267.551 94.1367L267.363 94.9922C267.254 95.4922 267.199 95.918 267.199 96.2695C267.215 96.918 267.312 97.4609 267.492 97.8984C267.711 98.3047 268.121 98.5234 268.723 98.5547L268.922 98.543C269.164 98.4414 269.422 98.3203 269.695 98.1797C269.789 98.1328 269.938 98.0898 270.141 98.0508C270.359 98.0039 270.52 97.9492 270.621 97.8867L270.762 98.1797C270.082 98.5547 269.367 98.8164 268.617 98.9648C268.406 99.0273 268.164 99.0586 267.891 99.0586ZM264.141 95.5547C264.289 95.5547 264.441 95.5469 264.598 95.5312L264.656 95.4961C264.844 95.4258 265.043 95.3203 265.254 95.1797C265.504 94.8203 265.758 94.4062 266.016 93.9375C266.281 93.4609 266.484 92.9492 266.625 92.4023C266.719 92.082 266.766 91.707 266.766 91.2773C266.766 91.0117 266.73 90.7461 266.66 90.4805C266.59 90.207 266.461 89.9609 266.273 89.7422C266.023 89.4609 265.598 89.3125 264.996 89.2969C264.832 89.2969 264.668 89.3086 264.504 89.332C263.496 89.7695 262.758 90.4883 262.289 91.4883C262.039 92.0586 261.914 92.6016 261.914 93.1172C261.914 93.5312 261.996 93.9141 262.16 94.2656C262.582 95.0469 263.242 95.4766 264.141 95.5547ZM282.984 98.9414C282.016 98.9414 281.277 98.5312 280.77 97.7109C280.332 96.9844 280.086 96.0312 280.031 94.8516L280.02 94.3945C280.02 92.957 280.352 91.4258 281.016 89.8008L280.629 89.8125L280.008 89.7891L280.02 89.5195C280.316 89.4414 280.492 89.3867 280.547 89.3555C280.688 89.3008 280.82 89.2734 280.945 89.2734L281.238 89.2852C281.785 88.0586 282.32 87.0039 282.844 86.1211C283.867 84.3945 284.887 83.2969 285.902 82.8281C286.629 82.5234 287.281 82.3711 287.859 82.3711C288.055 82.3711 288.266 82.3984 288.492 82.4531C288.727 82.5078 288.945 82.6094 289.148 82.7578C289.336 82.8984 289.465 83.0547 289.535 83.2266C289.605 83.3906 289.641 83.5625 289.641 83.7422C289.641 84.0234 289.59 84.3008 289.488 84.5742C289.277 85.2539 288.93 85.8945 288.445 86.4961C287.117 88.0977 285.066 89.1484 282.293 89.6484L282.211 89.6602L281.977 90.293C281.484 91.6758 281.238 92.9766 281.238 94.1953C281.238 94.7031 281.281 95.1992 281.367 95.6836C281.562 96.7461 281.914 97.5 282.422 97.9453C282.789 98.2656 283.242 98.4258 283.781 98.4258L284.156 98.4023C285.508 97.8711 286.578 96.8086 287.367 95.2148C287.555 94.8242 287.723 94.3867 287.871 93.9023C288.027 93.4102 288.105 92.9141 288.105 92.4141C288.105 91.1641 287.609 90.3477 286.617 89.9648C286.305 89.8477 285.969 89.7891 285.609 89.7891C285.297 89.8047 285.059 89.8281 284.895 89.8594C284.668 89.9297 284.492 89.9922 284.367 90.0469C284.258 90.0859 284.145 90.1172 284.027 90.1406C283.793 90.1875 283.594 90.2461 283.43 90.3164L283.312 90.0234C283.844 89.8125 284.402 89.6367 284.988 89.4961C285.512 89.3555 285.996 89.2852 286.441 89.2852C287.066 89.2852 287.609 89.4258 288.07 89.707C288.891 90.2305 289.301 91.0508 289.301 92.168C289.301 92.6133 289.234 93.0938 289.102 93.6094C288.883 94.4766 288.516 95.293 288 96.0586C287.172 97.293 286.152 98.1172 284.941 98.5312C284.207 98.8047 283.555 98.9414 282.984 98.9414ZM282.398 89.2266L282.797 89.1797C282.969 89.1562 283.141 89.125 283.312 89.0859C283.977 88.8984 284.629 88.6172 285.27 88.2422C286.895 87.2891 287.91 86.0781 288.316 84.6094C288.387 84.3828 288.422 84.1602 288.422 83.9414C288.422 83.8633 288.418 83.7891 288.41 83.7188C288.301 83.2969 287.98 83.0312 287.449 82.9219C287.324 82.8984 287.195 82.8867 287.062 82.8867L286.852 82.8984C286.695 82.9766 286.531 83.0742 286.359 83.1914C285.984 83.4727 285.645 83.793 285.34 84.1523C285.035 84.5039 284.773 84.8438 284.555 85.1719C283.82 86.25 283.102 87.6016 282.398 89.2266ZM293.988 98.9414C293.215 98.9414 292.52 98.7227 291.902 98.2852C291.066 97.6445 290.578 96.6797 290.438 95.3906C290.422 95.2188 290.414 95.043 290.414 94.8633C290.414 94.082 290.559 93.3047 290.848 92.5312C291.23 91.5781 291.781 90.8242 292.5 90.2695C292.812 90.1055 293.059 89.9688 293.238 89.8594L294.258 89.3555L293.25 89.6016L293.062 89.6484L293.016 89.4961C293.344 89.3945 293.66 89.3047 293.965 89.2266C294.332 89.1172 294.711 89.0195 295.102 88.9336C295.492 88.8398 295.891 88.793 296.297 88.793C296.773 88.793 297.246 88.8867 297.715 89.0742C298.676 89.5273 299.324 90.332 299.66 91.4883C299.762 91.8867 299.812 92.2969 299.812 92.7188C299.812 93.4688 299.656 94.2305 299.344 95.0039C299.039 95.7695 298.594 96.4766 298.008 97.125C297.617 97.5547 297.203 97.9023 296.766 98.168C296.289 98.4258 295.738 98.6289 295.113 98.7773C294.746 98.8867 294.371 98.9414 293.988 98.9414ZM294.762 98.4375C295.02 98.4375 295.215 98.4062 295.348 98.3438C296.098 97.9844 296.77 97.3828 297.363 96.5391C298.191 95.3203 298.605 94.1211 298.605 92.9414C298.605 92.4258 298.523 91.9297 298.359 91.4531C298.016 90.5312 297.457 89.8906 296.684 89.5312C296.395 89.4141 296.082 89.3438 295.746 89.3203C295.449 89.4062 295.145 89.5039 294.832 89.6133C293.215 90.2227 292.203 91.4453 291.797 93.2812C291.695 93.7266 291.645 94.1797 291.645 94.6406C291.645 95.3516 291.781 96.0234 292.055 96.6562C292.328 97.2812 292.766 97.7578 293.367 98.0859C293.805 98.3125 294.27 98.4297 294.762 98.4375ZM313.898 98.9414C312.93 98.9414 312.191 98.5312 311.684 97.7109C311.246 96.9844 311 96.0312 310.945 94.8516L310.934 94.3945C310.934 92.957 311.266 91.4258 311.93 89.8008L311.543 89.8125L310.922 89.7891L310.934 89.5195C311.23 89.4414 311.406 89.3867 311.461 89.3555C311.602 89.3008 311.734 89.2734 311.859 89.2734L312.152 89.2852C312.699 88.0586 313.234 87.0039 313.758 86.1211C314.781 84.3945 315.801 83.2969 316.816 82.8281C317.543 82.5234 318.195 82.3711 318.773 82.3711C318.969 82.3711 319.18 82.3984 319.406 82.4531C319.641 82.5078 319.859 82.6094 320.062 82.7578C320.25 82.8984 320.379 83.0547 320.449 83.2266C320.52 83.3906 320.555 83.5625 320.555 83.7422C320.555 84.0234 320.504 84.3008 320.402 84.5742C320.191 85.2539 319.844 85.8945 319.359 86.4961C318.031 88.0977 315.98 89.1484 313.207 89.6484L313.125 89.6602L312.891 90.293C312.398 91.6758 312.152 92.9766 312.152 94.1953C312.152 94.7031 312.195 95.1992 312.281 95.6836C312.477 96.7461 312.828 97.5 313.336 97.9453C313.703 98.2656 314.156 98.4258 314.695 98.4258L315.07 98.4023C316.422 97.8711 317.492 96.8086 318.281 95.2148C318.469 94.8242 318.637 94.3867 318.785 93.9023C318.941 93.4102 319.02 92.9141 319.02 92.4141C319.02 91.1641 318.523 90.3477 317.531 89.9648C317.219 89.8477 316.883 89.7891 316.523 89.7891C316.211 89.8047 315.973 89.8281 315.809 89.8594C315.582 89.9297 315.406 89.9922 315.281 90.0469C315.172 90.0859 315.059 90.1172 314.941 90.1406C314.707 90.1875 314.508 90.2461 314.344 90.3164L314.227 90.0234C314.758 89.8125 315.316 89.6367 315.902 89.4961C316.426 89.3555 316.91 89.2852 317.355 89.2852C317.98 89.2852 318.523 89.4258 318.984 89.707C319.805 90.2305 320.215 91.0508 320.215 92.168C320.215 92.6133 320.148 93.0938 320.016 93.6094C319.797 94.4766 319.43 95.293 318.914 96.0586C318.086 97.293 317.066 98.1172 315.855 98.5312C315.121 98.8047 314.469 98.9414 313.898 98.9414ZM313.312 89.2266L313.711 89.1797C313.883 89.1562 314.055 89.125 314.227 89.0859C314.891 88.8984 315.543 88.6172 316.184 88.2422C317.809 87.2891 318.824 86.0781 319.23 84.6094C319.301 84.3828 319.336 84.1602 319.336 83.9414C319.336 83.8633 319.332 83.7891 319.324 83.7188C319.215 83.2969 318.895 83.0312 318.363 82.9219C318.238 82.8984 318.109 82.8867 317.977 82.8867L317.766 82.8984C317.609 82.9766 317.445 83.0742 317.273 83.1914C316.898 83.4727 316.559 83.793 316.254 84.1523C315.949 84.5039 315.688 84.8438 315.469 85.1719C314.734 86.25 314.016 87.6016 313.312 89.2266ZM319.547 105.492L319.324 105.34C320.145 102.441 321.43 98.4258 323.18 93.293L324.293 90.1406L324.516 89.625C324.227 89.7188 323.789 89.8242 323.203 89.9414L323.145 89.6602L323.988 89.4258L324.176 89.3672L324.762 89.1211L325.066 89.0391C325.16 89.0156 325.449 88.9609 325.934 88.875L325.688 89.4609L325.465 90.082C325.871 89.8164 326.586 89.5234 327.609 89.2031C328.172 89.0391 328.605 88.957 328.91 88.957C329.934 88.957 330.625 89.5977 330.984 90.8789C331.117 91.3633 331.184 91.875 331.184 92.4141C331.184 93.3906 330.961 94.4141 330.516 95.4844C329.922 96.8438 329.199 97.7734 328.348 98.2734C328.035 98.4375 327.707 98.5586 327.363 98.6367L326.918 98.7539C326.645 98.832 326.352 98.8711 326.039 98.8711C325.797 98.8711 325.551 98.8359 325.301 98.7656C324.668 98.5703 324.188 98.1719 323.859 97.5703L323.953 97.3945C324.508 97.2305 324.812 97.1484 324.867 97.1484C324.977 97.1484 325.039 97.1836 325.055 97.2539C325.336 97.7852 325.746 98.1289 326.285 98.2852C326.473 98.3398 326.664 98.3672 326.859 98.3672L327.07 98.3555C327.641 98.1055 328.16 97.6172 328.629 96.8906C329.035 96.2656 329.355 95.5938 329.59 94.875C329.84 94.0938 329.965 93.3398 329.965 92.6133C329.965 92.0117 329.879 91.4492 329.707 90.9258C329.363 89.957 328.836 89.4727 328.125 89.4727C328.016 89.4727 327.902 89.4805 327.785 89.4961L327.645 89.5547C327.223 89.7031 326.793 89.9258 326.355 90.2227C325.77 90.5977 325.309 91.0078 324.973 91.4531C323.129 96.7344 321.648 101.301 320.531 105.152C320.516 105.238 320.324 105.32 319.957 105.398L319.547 105.492ZM336 98.9414C335.672 98.9414 335.336 98.8945 334.992 98.8008C334.648 98.707 334.32 98.5391 334.008 98.2969C333.531 97.8828 333.195 97.3828 333 96.7969C332.812 96.2109 332.719 95.6211 332.719 95.0273C332.719 94.5273 332.77 94.0547 332.871 93.6094C333.105 92.5625 333.555 91.6367 334.219 90.832C334.57 90.4023 334.957 90.0586 335.379 89.8008C335.949 89.4961 336.535 89.2773 337.137 89.1445L337.43 89.0859C337.656 89.0312 337.875 88.9883 338.086 88.957C338.305 88.9258 338.527 88.9102 338.754 88.9102C339.52 88.9102 340.148 89.1055 340.641 89.4961C340.898 89.707 341.09 89.957 341.215 90.2461C341.348 90.5273 341.414 90.832 341.414 91.1602C341.414 92.457 340.551 93.4531 338.824 94.1484C338.121 94.4062 337.465 94.6094 336.855 94.7578C336.121 94.9531 335.441 95.0547 334.816 95.0625V94.7695L335.109 94.7227C335.453 94.6133 335.664 94.5586 335.742 94.5586C336.023 94.5508 336.297 94.5234 336.562 94.4766L336.621 94.4648C336.934 94.4258 337.34 94.3047 337.84 94.1016L337.898 94.0781C338.375 93.8828 338.766 93.668 339.07 93.4336C339.82 92.832 340.195 92.1445 340.195 91.3711V91.2656C340.109 90.3984 339.652 89.8242 338.824 89.543C338.551 89.457 338.25 89.4141 337.922 89.4141C337.305 89.4141 336.816 89.5469 336.457 89.8125C335.762 90.25 335.191 90.8633 334.746 91.6523C334.309 92.4336 334.047 93.2969 333.961 94.2422L333.949 94.7344C333.949 95.0312 333.98 95.3867 334.043 95.8008C334.105 96.2148 334.234 96.6211 334.43 97.0195C334.633 97.418 334.926 97.7539 335.309 98.0273C335.543 98.1758 335.785 98.2812 336.035 98.3438C336.293 98.4062 336.547 98.4375 336.797 98.4375C337.719 98.4375 338.73 97.9688 339.832 97.0312C339.902 96.9844 340.051 96.9336 340.277 96.8789C340.512 96.8242 340.688 96.7812 340.805 96.75L340.969 96.9844C340.242 97.6094 339.48 98.0703 338.684 98.3672C337.637 98.75 336.742 98.9414 336 98.9414ZM343.242 98.9414C342.945 98.9414 342.676 98.8516 342.434 98.6719C342.051 98.3672 341.82 97.9844 341.742 97.5234V97.5C341.742 97.3906 341.93 97.3086 342.305 97.2539L342.938 97.1016C343.008 97.6406 343.219 98.0352 343.57 98.2852C343.703 98.3711 343.816 98.418 343.91 98.4258C344.215 98.2461 344.504 98.0078 344.777 97.7109C345.051 97.4141 345.297 97.125 345.516 96.8438C346.125 96.0234 346.633 95.2109 347.039 94.4062L347.73 93.0938C348.426 91.8594 349.074 90.5195 349.676 89.0742C349.715 89.0039 350.152 88.8711 350.988 88.6758C350.777 89.207 350.617 89.7734 350.508 90.375L350.461 90.5859C350.414 90.7578 350.375 90.918 350.344 91.0664C350.312 91.2148 350.246 91.5 350.145 91.9219C349.879 92.9453 349.746 93.7891 349.746 94.4531C349.746 95.4531 349.906 95.9727 350.227 96.0117C351.039 95.6367 351.832 94.6055 352.605 92.918L352.945 92.2617C353.57 91.1992 354.027 90.1797 354.316 89.2031C354.348 89.1406 354.43 89.0938 354.562 89.0625L354.938 88.9688L355.594 88.793L355.535 89.0391C354.559 92.5625 353.996 94.9961 353.848 96.3398C353.809 96.6758 353.789 96.9102 353.789 97.043C353.789 97.6523 353.992 98.0547 354.398 98.25C354.547 98.3281 354.723 98.3672 354.926 98.3672C355.066 98.3516 355.145 98.3438 355.16 98.3438C355.676 98.1641 356.336 97.832 357.141 97.3477C357.242 97.293 357.348 97.2539 357.457 97.2305L357.832 97.1602C357.887 97.1523 357.977 97.1289 358.102 97.0898L358.242 97.3359C357.234 97.9375 356.348 98.3477 355.582 98.5664C355.535 98.5898 355.465 98.6094 355.371 98.625C355.293 98.6641 355.203 98.6875 355.102 98.6953C354.789 98.8125 354.457 98.8711 354.105 98.8711C353.449 98.8711 352.992 98.5938 352.734 98.0391C352.625 97.7578 352.57 97.4805 352.57 97.207C352.617 96.3242 352.758 95.3867 352.992 94.3945C352.961 94.457 352.695 94.7695 352.195 95.332C351.789 95.7383 351.355 96.0312 350.895 96.2109C350.246 96.4219 349.797 96.5273 349.547 96.5273C349.289 96.5273 349.074 96.4414 348.902 96.2695C348.707 96.0273 348.602 95.7539 348.586 95.4492C348.555 95.2227 348.539 94.9883 348.539 94.7461C348.547 94.1289 348.566 93.7539 348.598 93.6211C348.488 93.832 348.254 94.2578 347.895 94.8984C347.387 95.8281 346.805 96.6602 346.148 97.3945C345.609 98.0508 345.004 98.4922 344.332 98.7188L344.109 98.8008C343.961 98.8477 343.816 98.8828 343.676 98.9062C343.543 98.9297 343.398 98.9414 343.242 98.9414ZM360.961 98.9414C360.633 98.9414 360.297 98.8945 359.953 98.8008C359.609 98.707 359.281 98.5391 358.969 98.2969C358.492 97.8828 358.156 97.3828 357.961 96.7969C357.773 96.2109 357.68 95.6211 357.68 95.0273C357.68 94.5273 357.73 94.0547 357.832 93.6094C358.066 92.5625 358.516 91.6367 359.18 90.832C359.531 90.4023 359.918 90.0586 360.34 89.8008C360.91 89.4961 361.496 89.2773 362.098 89.1445L362.391 89.0859C362.617 89.0312 362.836 88.9883 363.047 88.957C363.266 88.9258 363.488 88.9102 363.715 88.9102C364.48 88.9102 365.109 89.1055 365.602 89.4961C365.859 89.707 366.051 89.957 366.176 90.2461C366.309 90.5273 366.375 90.832 366.375 91.1602C366.375 92.457 365.512 93.4531 363.785 94.1484C363.082 94.4062 362.426 94.6094 361.816 94.7578C361.082 94.9531 360.402 95.0547 359.777 95.0625V94.7695L360.07 94.7227C360.414 94.6133 360.625 94.5586 360.703 94.5586C360.984 94.5508 361.258 94.5234 361.523 94.4766L361.582 94.4648C361.895 94.4258 362.301 94.3047 362.801 94.1016L362.859 94.0781C363.336 93.8828 363.727 93.668 364.031 93.4336C364.781 92.832 365.156 92.1445 365.156 91.3711V91.2656C365.07 90.3984 364.613 89.8242 363.785 89.543C363.512 89.457 363.211 89.4141 362.883 89.4141C362.266 89.4141 361.777 89.5469 361.418 89.8125C360.723 90.25 360.152 90.8633 359.707 91.6523C359.27 92.4336 359.008 93.2969 358.922 94.2422L358.91 94.7344C358.91 95.0312 358.941 95.3867 359.004 95.8008C359.066 96.2148 359.195 96.6211 359.391 97.0195C359.594 97.418 359.887 97.7539 360.27 98.0273C360.504 98.1758 360.746 98.2812 360.996 98.3438C361.254 98.4062 361.508 98.4375 361.758 98.4375C362.68 98.4375 363.691 97.9688 364.793 97.0312C364.863 96.9844 365.012 96.9336 365.238 96.8789C365.473 96.8242 365.648 96.7812 365.766 96.75L365.93 96.9844C365.203 97.6094 364.441 98.0703 363.645 98.3672C362.598 98.75 361.703 98.9414 360.961 98.9414ZM368.051 98.9531L367.875 98.7656C368.68 97.1719 369.629 94.8047 370.723 91.6641C371.277 90.0781 371.559 89.2734 371.566 89.25L369.574 89.4023L369.551 89.0859C369.66 89.0859 369.742 89.0781 369.797 89.0625L370.113 88.957C370.223 88.9102 370.34 88.8867 370.465 88.8867L372.258 88.7461L372.48 88.7227C372.691 88.7227 372.797 88.8008 372.797 88.957C372.797 89.0117 372.789 89.0625 372.773 89.1094C372.742 89.1719 372.715 89.2344 372.691 89.2969L372.68 89.3555C371.938 91.4727 371.426 92.9141 371.145 93.6797L371.742 93.5156C372.25 93.3828 372.812 93.3125 373.43 93.3047C373.781 93.2969 374.359 93.293 375.164 93.293C375.688 92.0273 376.266 90.8789 376.898 89.8477C376.992 89.6992 377.117 89.5469 377.273 89.3906C377.438 89.2344 377.645 89.1133 377.895 89.0273C378.168 88.9102 378.387 88.8516 378.551 88.8516C378.652 88.8203 378.773 88.8047 378.914 88.8047C379.125 88.8047 379.34 88.875 379.559 89.0156C379.855 89.2891 380.004 89.6484 380.004 90.0938C379.996 90.5312 379.801 91.0078 379.418 91.5234C378.699 92.4453 377.91 93.0547 377.051 93.3516C376.715 93.4531 376.426 93.5352 376.184 93.5977C375.988 94.1055 375.832 94.5977 375.715 95.0742C375.645 95.3398 375.582 95.6133 375.527 95.8945C375.473 96.168 375.445 96.4453 375.445 96.7266C375.445 97.5156 375.66 98.0273 376.09 98.2617C376.207 98.3164 376.336 98.3555 376.477 98.3789C376.625 98.3945 376.777 98.4023 376.934 98.4023H377.191C377.348 98.4023 377.461 98.3867 377.531 98.3555C378.07 98.1289 378.676 97.75 379.348 97.2188C379.41 97.1797 379.559 97.1328 379.793 97.0781C380.027 97.0234 380.199 96.9844 380.309 96.9609L380.473 97.1953L379.77 97.6992C379.23 98.0742 378.738 98.3359 378.293 98.4844C378.004 98.5859 377.707 98.6758 377.402 98.7539C377.066 98.8477 376.645 98.9062 376.137 98.9297C375.965 98.9297 375.789 98.918 375.609 98.8945C375.43 98.8633 375.254 98.8086 375.082 98.7305C374.512 98.4258 374.227 97.8242 374.227 96.9258C374.227 96.6133 374.258 96.2969 374.32 95.9766C374.383 95.6562 374.461 95.3438 374.555 95.0391C374.672 94.6172 374.809 94.1992 374.965 93.7852C374.613 93.8008 374.211 93.8086 373.758 93.8086H373.043C372.691 93.8086 372.34 93.8242 371.988 93.8555C371.629 93.8789 371.328 93.9648 371.086 94.1133C371.031 94.1523 370.988 94.1758 370.957 94.1836C370.402 95.7305 369.773 97.2148 369.07 98.6367C369.016 98.7227 368.676 98.8281 368.051 98.9531ZM376.324 93.2227C377.066 92.9023 377.73 92.332 378.316 91.5117C378.426 91.3477 378.531 91.1484 378.633 90.9141C378.734 90.6797 378.785 90.4453 378.785 90.2109C378.785 89.9297 378.684 89.6758 378.48 89.4492C378.426 89.3945 378.395 89.3672 378.387 89.3672C378.191 89.5625 378.02 89.8086 377.871 90.1055C377.246 91.168 376.73 92.207 376.324 93.2227ZM390.152 98.9414C389.652 98.9414 389.18 98.8047 388.734 98.5312C387.984 98.0625 387.551 97.3633 387.434 96.4336C386.777 97.6445 385.949 98.3867 384.949 98.6602L384.352 98.8242C384.078 98.8867 383.859 98.9219 383.695 98.9297C383.281 98.9297 382.895 98.8242 382.535 98.6133C382.176 98.4023 381.891 98.1211 381.68 97.7695C381.523 97.4805 381.418 97.1797 381.363 96.8672C381.309 96.5469 381.281 96.2344 381.281 95.9297C381.281 95.7188 381.289 95.5156 381.305 95.3203C381.445 93.9844 382.082 92.2148 383.215 90.0117C383.387 89.6445 383.492 89.4453 383.531 89.4141L383.016 89.543C382.602 89.6211 382.043 89.6797 381.34 89.7188L381.328 89.4375C381.453 89.4219 381.551 89.3984 381.621 89.3672C381.973 89.2578 382.18 89.2031 382.242 89.2031C382.719 89.1875 383.137 89.1484 383.496 89.0859L383.66 89.0508L383.719 89.0273C383.992 88.9414 384.266 88.8906 384.539 88.875C384.648 88.875 384.734 88.8945 384.797 88.9336L384.82 88.957C384.844 88.9727 384.855 88.9922 384.855 89.0156L384.867 89.0391C384.867 89.0703 384.852 89.0977 384.82 89.1211C384.773 89.2305 384.723 89.3281 384.668 89.4141L384.633 89.4609C383.82 90.9688 383.23 92.332 382.863 93.5508C382.652 94.207 382.535 94.7734 382.512 95.25L382.5 95.6953C382.5 95.9844 382.523 96.2852 382.57 96.5977C382.625 96.9102 382.73 97.1992 382.887 97.4648C383.301 98.0898 383.824 98.4023 384.457 98.4023H384.504C384.652 98.3242 384.805 98.2227 384.961 98.0977C385.992 97.2617 386.855 95.7344 387.551 93.5156C387.66 93.0781 387.785 92.6406 387.926 92.2031L388.055 91.7695C388.234 91.0273 388.504 90.2734 388.863 89.5078C388.902 89.4375 388.992 89.3906 389.133 89.3672C389.273 89.3359 389.5 89.2773 389.812 89.1914L390.07 89.3438L390.047 89.3789C389.727 90.0977 389.387 91.1172 389.027 92.4375L388.793 93.2461C388.629 93.8867 388.547 94.4648 388.547 94.9805V95.2617C388.562 95.7461 388.645 96.2422 388.793 96.75C388.949 97.25 389.25 97.6719 389.695 98.0156C390.078 98.2891 390.52 98.4258 391.02 98.4258C391.426 98.2461 391.867 98 392.344 97.6875C392.586 97.5234 392.766 97.4062 392.883 97.3359C392.984 97.2969 393.137 97.2578 393.34 97.2188C393.559 97.1641 393.719 97.1094 393.82 97.0547L393.961 97.3359L393.586 97.582L393.223 97.8164C392.527 98.2695 391.852 98.5781 391.195 98.7422L390.961 98.8125C390.688 98.8984 390.418 98.9414 390.152 98.9414Z" fill="#E1E1E1"/>
<path d="M102.188 69.8887L101.445 69.332C102.138 67.5013 103.758 62.1947 106.307 53.4121C107.89 48.0189 109.374 43.0339 110.76 38.457C112.615 32.0495 114.681 25.8646 116.957 19.9023C115.25 19.457 113.481 18.9622 111.65 18.418C110.463 17.9974 109.251 17.6634 108.014 17.416C106.801 17.1439 105.663 17.0078 104.6 17.0078L103.561 17.0449C102.992 17.3418 102.336 17.8366 101.594 18.5293L101.26 18.8262C100.592 19.5684 99.7878 20.2116 98.8477 20.7559C98.526 20.8796 98.056 21.0156 97.4375 21.1641C96.7695 21.3125 96.25 21.4733 95.8789 21.6465L95.4336 20.7559C96.2253 20.2858 96.918 19.7539 97.5117 19.1602C98.2539 18.4427 98.8229 17.9355 99.2188 17.6387C100.283 16.8223 101.965 16.1914 104.266 15.7461C105.008 15.5234 105.96 15.4121 107.123 15.4121C108.113 15.4121 109.077 15.4987 110.018 15.6719C110.958 15.8451 111.848 16.0553 112.689 16.3027L121.781 18.7891C124.23 19.3333 126.432 19.6055 128.387 19.6055C129.574 19.6055 130.737 19.4818 131.875 19.2344C133.755 18.6159 135.598 17.5892 137.404 16.1543C137.602 16.0059 137.788 15.9316 137.961 15.9316L140.484 15.2637L140.93 16.0059C138.208 18.2324 134.831 19.7539 130.799 20.5703C129.215 20.9661 127.521 21.1641 125.715 21.1641C123.934 21.1641 122.115 20.9909 120.26 20.6445C117.736 27.4479 114.31 38.3581 109.98 53.375L106.492 65.1387C105.701 67.8105 105.045 69.196 104.525 69.2949L103.709 69.4805L103.227 69.5918C102.831 69.666 102.484 69.765 102.188 69.8887ZM145.086 69.8145C143.626 69.8145 142.253 69.4805 140.967 68.8125C139.359 67.9466 138.208 66.6973 137.516 65.0645C137.194 64.2728 136.971 63.4564 136.848 62.6152C136.749 61.7741 136.699 60.9577 136.699 60.166L136.736 58.6074C136.86 56.9251 137.182 55.2552 137.701 53.5977C138.221 51.9401 138.814 50.3197 139.482 48.7363C140.893 45.2728 142.34 42.2298 143.824 39.6074C141.474 40.2507 139.161 40.5723 136.885 40.5723L136.848 39.6445C137.243 39.6445 137.553 39.5951 137.775 39.4961C138.839 39.1497 139.495 38.9766 139.742 38.9766C140.534 38.9271 141.313 38.8529 142.08 38.7539C142.872 38.6549 143.416 38.5807 143.713 38.5312C144.035 38.4818 144.529 38.3704 145.197 38.1973L146.162 38.0117C146.558 37.9622 146.83 37.9375 146.979 37.9375C147.3 37.9375 147.572 38.0241 147.795 38.1973L147.646 39.125C147.399 39.5208 147.164 39.9414 146.941 40.3867C145.531 43.0586 144.27 45.7923 143.156 48.5879C142.538 50.0723 141.981 51.5938 141.486 53.1523C141.016 54.6862 140.719 56.2448 140.596 57.8281L140.559 59.3125C140.559 63.2708 141.647 65.8809 143.824 67.1426C145.036 67.86 146.298 68.2188 147.609 68.2188C147.857 68.2188 148.067 68.2064 148.24 68.1816H148.314C149.205 67.8353 150.257 67.1673 151.469 66.1777C151.617 66.054 152.644 65.7572 154.549 65.2871L155.031 66.0293C153.745 67.1426 152.483 67.9466 151.246 68.4414C150.009 68.9115 148.549 69.3073 146.867 69.6289C146.273 69.7526 145.68 69.8145 145.086 69.8145ZM145.717 33.4102L145.568 32.4824L145.828 32.4453C146.001 32.2969 146.125 31.9382 146.199 31.3691L146.459 30.2188C146.632 29.5013 146.842 28.821 147.09 28.1777C147.337 27.5345 147.696 26.9902 148.166 26.5449C149.378 25.6296 150.702 25.0482 152.137 24.8008L153.139 24.5781L153.51 25.4316C152.644 25.7533 151.964 26.1615 151.469 26.6562C150.999 27.2747 150.689 27.9922 150.541 28.8086L149.984 30.8496C149.91 31.6413 149.551 32.2227 148.908 32.5938C147.943 32.9401 146.88 33.2122 145.717 33.4102ZM177.779 70.1855L177.408 70.1113C176.146 68.9238 175.516 67.1797 175.516 64.8789C175.615 62.7513 176.085 60.599 176.926 58.4219C177.371 57.1849 177.829 55.9727 178.299 54.7852C178.893 53.6224 179.598 51.6432 180.414 48.8477C180.909 47.1406 181.156 45.4954 181.156 43.9121C181.156 43.1204 181.082 42.3411 180.934 41.5742C180.81 40.8073 180.525 40.2012 180.08 39.7559C179.907 39.6074 179.697 39.5085 179.449 39.459C179.202 39.4095 178.954 39.3848 178.707 39.3848C177.816 39.3848 177.21 39.4714 176.889 39.6445L176.443 39.793C174.167 40.6094 172.238 41.5 170.654 42.4648C168.477 48.4518 165.471 56.2077 161.637 65.7324L161.303 66.5859C160.61 68.4909 160.09 69.4928 159.744 69.5918C159.398 69.666 158.482 69.8639 156.998 70.1855L156.441 69.5918C156.961 68.4785 157.419 67.3529 157.814 66.2148C160.783 58.7188 163.072 52.8926 164.68 48.7363C166.486 43.8874 167.71 40.7454 168.354 39.3105L163.307 40.3125L163.121 39.3477C163.591 39.2734 164.036 39.1745 164.457 39.0508C164.878 38.9023 167.512 38.3333 172.361 37.3438C172.114 38.3828 171.854 39.2487 171.582 39.9414L171.434 40.3125C172.25 39.9661 173.388 39.5827 174.848 39.1621C177.569 38.222 179.709 37.752 181.268 37.752C181.936 37.752 182.566 37.888 183.16 38.1602C183.902 38.6055 184.385 39.2487 184.607 40.0898C184.855 40.931 184.979 41.6361 184.979 42.2051C187.428 40.9434 189.716 39.9661 191.844 39.2734C194.639 38.3581 196.68 37.9004 197.967 37.9004C199.055 37.9004 199.859 38.1725 200.379 38.7168C200.898 39.2611 201.232 39.8796 201.381 40.5723C201.554 41.2402 201.653 41.8464 201.678 42.3906L201.715 43.1328C201.715 44.2461 201.604 45.3099 201.381 46.3242C201.183 47.3385 200.948 48.2663 200.676 49.1074C200.428 49.8991 199.612 52.1875 198.227 55.9727C197.385 58.125 196.73 60.3145 196.26 62.541C196.087 63.3327 196 64.0996 196 64.8418C196 65.584 196.124 66.2396 196.371 66.8086C196.643 67.3776 197.064 67.7734 197.633 67.9961C198.029 68.1198 198.486 68.1816 199.006 68.1816C199.303 68.1816 199.587 68.1569 199.859 68.1074L200.082 68.0332C200.206 68.0085 200.305 67.959 200.379 67.8848C201.467 67.4642 202.742 66.7715 204.201 65.8066C205.117 65.2624 205.772 64.916 206.168 64.7676L209.1 64.0254L209.359 64.916C208.79 65.1139 208.271 65.3737 207.801 65.6953L207.281 65.9922C204.758 67.5508 202.432 68.5898 200.305 69.1094C199.859 69.1836 199.439 69.2826 199.043 69.4062C198.326 69.6784 197.46 69.8145 196.445 69.8145L195.889 69.7773C193.415 69.5299 192.178 68.1693 192.178 65.6953C192.178 65.2005 192.202 64.7057 192.252 64.2109C192.574 61.9349 193.143 59.7826 193.959 57.7539L195.072 54.7109C195.74 53.0534 196.346 51.3587 196.891 49.627C197.435 47.8952 197.757 46.1387 197.855 44.3574V43.7637C197.855 41.3639 197.336 39.9909 196.297 39.6445C195.975 39.5456 195.666 39.4961 195.369 39.4961L194.627 39.5703L194.145 39.6816L193.662 39.8672C190.273 41.1289 187.366 42.5885 184.941 44.2461C184.793 46.7695 183.878 50.0723 182.195 54.1543L182.121 54.3398C181.552 55.7005 181.033 57.0736 180.562 58.459C179.969 60.0423 179.573 61.7988 179.375 63.7285V64.1738C179.375 66.3014 179.882 67.8353 180.896 68.7754C180.575 69.2454 180.402 69.4928 180.377 69.5176L179.338 69.8516C178.497 70.0742 177.977 70.1855 177.779 70.1855ZM218.785 69.8145C217.746 69.8145 216.682 69.666 215.594 69.3691C214.505 69.0723 213.466 68.5404 212.477 67.7734C210.967 66.4622 209.904 64.8789 209.285 63.0234C208.691 61.168 208.395 59.3001 208.395 57.4199C208.395 55.8366 208.555 54.3398 208.877 52.9297C209.619 49.6146 211.042 46.6829 213.145 44.1348C214.258 42.7741 215.482 41.6855 216.818 40.8691C218.624 39.9043 220.48 39.2116 222.385 38.791L223.312 38.6055C224.03 38.4323 224.723 38.2962 225.391 38.1973C226.083 38.0983 226.788 38.0488 227.506 38.0488C229.93 38.0488 231.922 38.6673 233.48 39.9043C234.297 40.5723 234.903 41.3639 235.299 42.2793C235.719 43.1699 235.93 44.1348 235.93 45.1738C235.93 49.2806 233.196 52.4349 227.729 54.6367C225.502 55.4531 223.424 56.0964 221.494 56.5664C219.169 57.1849 217.016 57.5065 215.037 57.5312V56.6035L215.965 56.4551C217.053 56.1087 217.721 55.9355 217.969 55.9355C218.859 55.9108 219.725 55.8242 220.566 55.6758L220.752 55.6387C221.742 55.515 223.028 55.1315 224.611 54.4883L224.797 54.4141C226.306 53.7956 227.543 53.1152 228.508 52.373C230.883 50.4681 232.07 48.291 232.07 45.8418V45.5078C231.798 42.7617 230.351 40.9434 227.729 40.0527C226.863 39.7806 225.91 39.6445 224.871 39.6445C222.917 39.6445 221.37 40.0651 220.232 40.9062C218.031 42.2917 216.225 44.2337 214.814 46.7324C213.429 49.2064 212.6 51.9401 212.328 54.9336L212.291 56.4922C212.291 57.4323 212.39 58.5579 212.588 59.8691C212.786 61.1803 213.194 62.4668 213.812 63.7285C214.456 64.9902 215.383 66.054 216.596 66.9199C217.338 67.39 218.105 67.724 218.896 67.9219C219.713 68.1198 220.517 68.2188 221.309 68.2188C224.228 68.2188 227.432 66.7344 230.92 63.7656C231.143 63.6172 231.613 63.4564 232.33 63.2832C233.072 63.11 233.629 62.974 234 62.875L234.52 63.6172C232.219 65.5964 229.807 67.056 227.283 67.9961C223.968 69.2083 221.135 69.8145 218.785 69.8145ZM247.137 69.9258L247.211 66.623C247.236 65.485 247.248 64.0749 247.248 62.3926C247.174 54.5007 246.691 48.2292 245.801 43.5781C245.652 42.7122 245.393 41.8464 245.021 40.9805C244.65 40.0898 244.094 39.36 243.352 38.791C243.03 38.5931 242.77 38.4818 242.572 38.457C241.657 38.9518 240.766 39.7064 239.9 40.7207C239.702 40.9186 239.455 41.0299 239.158 41.0547L236.783 41.6484L236.227 40.9805C237.414 39.5703 238.725 38.556 240.16 37.9375C240.828 37.6654 241.533 37.4551 242.275 37.3066C243.265 36.9603 244.118 36.7871 244.836 36.7871L245.467 36.8242C246.778 37.1953 247.73 37.9375 248.324 39.0508C248.943 40.1641 249.339 41.1784 249.512 42.0938C249.957 44.2708 250.266 46.485 250.439 48.7363L250.514 49.4043C250.885 53.9069 251.07 58.1992 251.07 62.2812L251.033 65.7695C251.775 65.1263 252.641 64.2975 253.631 63.2832C256.055 60.8587 257.824 58.8177 258.938 57.1602C257.997 53.9688 257.527 50.9382 257.527 48.0684C257.527 45.7181 257.849 43.5781 258.492 41.6484L258.9 40.6465C259.148 39.8053 259.63 39.026 260.348 38.3086C260.892 37.9128 261.671 37.6159 262.686 37.418H262.723C263.341 37.1953 263.984 37.0469 264.652 36.9727C265.568 36.9727 266.372 37.3561 267.064 38.123C268.054 39.2363 268.549 40.7949 268.549 42.7988L268.512 44.0977C268.19 46.6211 267.473 48.9466 266.359 51.0742C265.246 53.1771 264.071 55.0326 262.834 56.6406C263.081 57.457 263.354 58.2734 263.65 59.0898C264.269 60.7969 264.727 62.2441 265.023 63.4316L266.471 60.9453C270.577 53.7708 274.227 48.2786 277.418 44.4688C278.185 43.5534 279.15 42.5762 280.312 41.5371C281.475 40.498 282.811 39.6322 284.32 38.9395C287.264 37.7767 290.48 37.0964 293.969 36.8984L294.08 37.8633C293.734 37.8633 293.486 37.888 293.338 37.9375C292.324 38.2839 291.495 38.4818 290.852 38.5312C289.887 38.6302 288.922 38.7539 287.957 38.9023C286.844 39.3477 285.669 40.0404 284.432 40.9805C282.403 42.6628 280.597 44.5801 279.014 46.7324C277.43 48.8848 275.946 51.099 274.561 53.375L274.523 53.4863C273.188 55.6387 271.258 58.8424 268.734 63.0977C268.116 64.112 267.51 65.151 266.916 66.2148C266.718 66.6107 266.372 67.1426 265.877 67.8105C265.382 68.4538 264.788 68.8867 264.096 69.1094L261.535 69.8145C261.708 69.3197 261.795 68.9609 261.795 68.7383C261.795 67.3776 261.622 66.0417 261.275 64.7305C260.954 63.3945 260.57 62.1081 260.125 60.8711L259.939 60.2773C258.381 62.0833 256.389 64.0501 253.965 66.1777L253.408 66.7344C252.963 67.1302 252.344 67.6126 251.553 68.1816C250.786 68.7507 250.093 69.1341 249.475 69.332L247.137 69.9258ZM261.869 52.7812C263.7 49.8125 264.652 46.7077 264.727 43.4668C264.727 41.5124 264.257 40.0775 263.316 39.1621L263.279 39.0137C263.057 39.3353 262.822 39.8301 262.574 40.498C261.758 42.5514 261.35 44.8522 261.35 47.4004C261.35 49.3548 261.523 51.1484 261.869 52.7812ZM316.643 69.8145C316.098 69.8145 315.566 69.7773 315.047 69.7031C313.612 69.3568 312.672 68.5898 312.227 67.4023C311.806 66.2148 311.546 65.0768 311.447 63.9883L311.373 63.6543C309.592 66.1283 307.031 67.8724 303.691 68.8867C303.395 69.0104 302.776 69.1712 301.836 69.3691C300.599 69.6165 299.721 69.7402 299.201 69.7402C297.098 69.7402 295.144 68.8496 293.338 67.0684C290.542 64.1738 289.145 60.599 289.145 56.3438C289.145 54.3893 289.479 52.4102 290.146 50.4062C292.546 43.6276 297.667 39.5456 305.51 38.1602C306.301 38.0117 307.056 37.9375 307.773 37.9375C308.639 37.9375 309.468 38.0365 310.26 38.2344C313.278 39.0013 315.22 40.5723 316.086 42.9473L316.234 43.4668C315.814 43.541 315.356 43.6523 314.861 43.8008C313.798 44.0977 313.154 44.2461 312.932 44.2461C312.511 44.2461 312.301 44.1224 312.301 43.875C311.509 41.6979 309.728 40.3125 306.957 39.7188C306.363 39.6198 305.757 39.5703 305.139 39.5703C304.718 39.5703 304.273 39.6074 303.803 39.6816H303.691C302.776 40.028 301.7 40.5846 300.463 41.3516C296.678 43.9245 294.303 47.5365 293.338 52.1875C293.115 53.2513 293.004 54.3275 293.004 55.416C293.004 56.9251 293.276 58.7559 293.82 60.9082C294.389 63.0358 295.775 64.9902 297.977 66.7715C299.214 67.6868 300.475 68.1445 301.762 68.1445L302.355 68.1074C304.829 67.0189 306.945 65.1387 308.701 62.4668C310.21 60.0176 311.435 57.4694 312.375 54.8223C313.637 51.8288 314.564 48.8105 315.158 45.7676C315.183 45.5944 315.319 45.4583 315.566 45.3594C315.814 45.2604 316.197 45.1615 316.717 45.0625L319.129 44.4316L318.943 45.582C318.597 47.5859 317.979 49.7507 317.088 52.0762L316.531 53.5234C316.383 53.8698 316.259 54.2161 316.16 54.5625C315.467 56.6901 315.121 58.793 315.121 60.8711C315.121 61.9102 315.171 62.6152 315.27 62.9863C315.344 63.9759 315.529 64.9902 315.826 66.0293C316.123 67.0436 316.692 67.7116 317.533 68.0332C318.003 68.1569 318.535 68.2188 319.129 68.2188C321.479 68.2188 323.805 67.0436 326.105 64.6934L326.662 64.4707L327.404 64.2852C327.404 64.2604 327.602 64.2109 327.998 64.1367C328.419 64.0625 328.703 63.9759 328.852 63.877H329.297L329.742 64.5078C327.664 66.6354 325.141 68.0703 322.172 68.8125C320.044 69.4805 318.201 69.8145 316.643 69.8145ZM336.941 69.8145L336.051 69.7773C331.845 69.4062 328.938 67.2663 327.33 63.3574C326.91 62.2936 326.613 61.2174 326.439 60.1289C326.291 59.0156 326.217 57.9271 326.217 56.8633C326.217 55.3542 326.303 54.0182 326.477 52.8555C325.957 53.0039 325.252 53.0781 324.361 53.0781C323.965 53.0781 323.471 53.041 322.877 52.9668L322.988 52.1504C323.483 51.9772 323.941 51.8535 324.361 51.7793L325.326 51.4824C325.376 51.4824 325.413 51.4701 325.438 51.4453L325.846 51.4082L326.662 51.4453L326.885 50.1094C328.171 42.4401 330.831 35.2904 334.863 28.6602C336.249 26.3099 337.622 24.2318 338.982 22.4258C339.7 21.4857 340.492 20.6198 341.357 19.8281C342.248 19.0117 343.262 18.4303 344.4 18.084L344.883 17.9355C345.279 17.8118 345.712 17.6882 346.182 17.5645C346.676 17.4408 347.159 17.3789 347.629 17.3789C348.173 17.3789 348.68 17.4902 349.15 17.7129C349.62 17.9355 350.004 18.3066 350.301 18.8262C350.647 19.5189 350.82 20.2487 350.82 21.0156C350.82 22.5247 350.375 24.541 349.484 27.0645C347.382 32.8535 344.017 38.5807 339.391 44.2461C336.125 48.3034 333.119 50.8021 330.373 51.7422C330.373 51.8411 330.361 51.9401 330.336 52.0391C330.138 52.8802 330.039 54.2904 330.039 56.2695C330.039 57.5312 330.163 58.8177 330.41 60.1289C330.658 61.4401 331.115 62.6895 331.783 63.877C333.465 66.5983 335.977 68.0332 339.316 68.1816H339.836C340.306 68.1816 340.788 68.1569 341.283 68.1074C342.891 67.5137 344.289 66.487 345.477 65.0273C345.625 64.8789 345.786 64.7923 345.959 64.7676C346.157 64.7428 346.355 64.7057 346.553 64.6562L348.148 64.248L348.631 64.1367L349.15 64.8047C348.581 65.4974 347.938 66.1159 347.221 66.6602C345.489 67.8229 343.77 68.5775 342.062 68.9238L340.727 69.2949C340.182 69.4434 339.589 69.5671 338.945 69.666C338.327 69.765 337.659 69.8145 336.941 69.8145ZM330.707 49.6641C331.721 48.9714 333.132 47.5488 334.938 45.3965C340.652 38.7415 344.45 32.099 346.33 25.4688C346.454 25.0234 346.59 24.4668 346.738 23.7988C346.911 23.1061 346.998 22.4134 346.998 21.7207C346.998 21.1517 346.911 20.6322 346.738 20.1621C346.565 19.6921 346.268 19.3581 345.848 19.1602L345.699 19.0859C343.893 20.4219 342.013 22.735 340.059 26.0254L339.91 26.2109C335.012 33.8802 331.944 41.6979 330.707 49.6641ZM355.199 69.8887L354.457 69.332C355.397 66.957 356.362 64.6562 357.352 62.4297L360.729 54.4141C359.912 54.2409 359.219 53.9316 358.65 53.4863C358.081 53.041 357.797 52.5586 357.797 52.0391C357.797 51.8906 357.834 51.7422 357.908 51.5938C358.007 51.2721 358.366 50.9505 358.984 50.6289C359.628 50.2826 360.778 50.0846 362.436 50.0352L362.51 49.8125C362.658 49.5156 362.807 49.1445 362.955 48.6992C366.394 39.9414 369.672 31.1589 372.789 22.3516L373.309 20.7559L373.717 19.457C373.791 19.2591 373.828 19.0612 373.828 18.8633C373.828 18.7396 373.816 18.6654 373.791 18.6406C373.791 18.6159 373.766 18.6035 373.717 18.6035C372.133 18.7767 370.365 19.0488 368.41 19.4199L368.262 18.4922L371.045 17.75L376.352 16.9707C376.648 16.9707 376.921 17.0326 377.168 17.1562C377.539 17.4284 377.725 17.7376 377.725 18.084C377.725 18.4551 377.65 18.8014 377.502 19.123C377.18 20.2611 376.772 21.4733 376.277 22.7598C373.977 29.2415 371.602 35.6367 369.152 41.9453L367.854 45.3594C366.963 47.7591 366.307 49.4414 365.887 50.4062C367.272 50.7279 368.583 51.3464 369.82 52.2617C371.379 51.5938 372.876 50.5918 374.311 49.2559C377.329 46.485 379.531 42.7741 380.916 38.123C381.04 37.8757 381.374 37.6901 381.918 37.5664C382.487 37.4427 383.056 37.3438 383.625 37.2695L384.998 36.9727L384.738 37.6406C384.194 39.6693 383.242 41.8587 381.881 44.209C380.545 46.5592 378.628 48.6621 376.129 50.5176C374.595 51.6803 372.851 52.5586 370.896 53.1523C371.936 54.0924 372.876 55.2181 373.717 56.5293C374.558 57.8158 375.337 59.1393 376.055 60.5L377.428 62.9121C379.333 66.1283 381.522 67.7363 383.996 67.7363C384.565 67.7116 384.973 67.6868 385.221 67.6621C386.334 67.2415 387.336 66.7344 388.227 66.1406C388.523 65.9922 388.857 65.8809 389.229 65.8066C389.699 65.7077 390.156 65.5964 390.602 65.4727L391.232 65.3242L391.678 66.1035C390.342 66.9694 388.956 67.625 387.521 68.0703C385.295 68.8372 383.353 69.2578 381.695 69.332C379.023 69.332 376.71 68.0703 374.756 65.5469C373.766 64.1862 372.925 62.7637 372.232 61.2793C371.812 60.5371 371.391 59.7826 370.971 59.0156C369.684 56.8385 368.385 55.2181 367.074 54.1543C365.986 54.4264 365.033 54.5749 364.217 54.5996C363.227 56.9993 362.213 59.4486 361.174 61.9473C359.937 64.7428 358.972 67.0436 358.279 68.8496C358.18 69.0723 357.735 69.2702 356.943 69.4434C356.176 69.5918 355.595 69.7402 355.199 69.8887ZM361.508 52.3359L361.916 51.2969L361.322 51.1855L361.062 51.2598C360.84 51.334 360.704 51.4206 360.654 51.5195L360.617 51.8164C360.667 52.0143 360.939 52.2493 361.434 52.5215L361.508 52.3359ZM364.699 53.375C365.046 53.375 365.429 53.2637 365.85 53.041C365.775 52.9915 365.516 52.7812 365.07 52.4102L364.699 53.375Z" fill="white"/>
<path d="M63.786 52.1627C63.786 51.5094 64.314 50.9814 64.9672 50.9814H68.4813C68.1943 43.3921 65.1562 36.5091 60.3321 31.3011L57.8456 33.7864C57.3838 34.2483 56.6372 34.2483 56.1754 33.7864C55.7135 33.3246 55.7135 32.578 56.1754 32.1162L58.6607 29.6309C53.4515 24.8056 46.5685 21.7687 38.9792 21.4805V24.9946C38.9792 25.6478 38.4512 26.1758 37.798 26.1758C37.1447 26.1758 36.6167 25.6478 36.6167 24.9946V21.4805C29.0274 21.7675 22.1444 24.8056 16.9364 29.6309L19.4217 32.1162C19.8836 32.578 19.8836 33.3234 19.4217 33.7864C18.9599 34.2483 18.2133 34.2483 17.7515 33.7864L15.2662 31.3011C10.4421 36.5115 7.40516 43.3945 7.11694 50.9838H10.6299C11.2831 50.9838 11.8099 51.5106 11.8111 52.165C11.8111 52.8171 11.2831 53.3451 10.6299 53.3462H7.11694C7.40516 60.9356 10.4433 67.8174 15.2674 73.0254L17.7526 70.5401C18.2145 70.0782 18.9587 70.0782 19.4229 70.5401C19.8836 71.0008 19.8836 71.7473 19.4229 72.2103L16.9376 74.6956C22.1456 79.5197 29.0274 82.5566 36.6167 82.8437L36.6179 79.3307C36.6179 78.6775 37.1447 78.1507 37.7991 78.1495C38.45 78.1495 38.978 78.6775 38.9804 79.3307L38.9792 82.8437C46.5685 82.5566 53.4503 79.5185 58.6583 74.6933L56.173 72.208C55.7112 71.7449 55.7112 70.9996 56.173 70.5365C56.6337 70.0759 57.3802 70.0759 57.8444 70.5365L60.3285 73.0218C65.1538 67.8138 68.1907 60.932 68.4778 53.3427H64.9672C64.314 53.3439 63.786 52.8159 63.786 52.1627Z" fill="white"/>
<path d="M37.799 14.3638C16.9233 14.3638 0 31.2871 0 52.1628C0 73.0385 16.9233 89.9619 37.799 89.9619C58.6747 89.9619 75.5981 73.0385 75.5981 52.1628C75.5981 31.2871 58.6747 14.3638 37.799 14.3638ZM37.799 85.237C19.5327 85.237 4.72488 70.4292 4.72488 52.1628C4.72488 33.8964 19.5327 19.0886 37.799 19.0886C56.0654 19.0886 70.8732 33.8964 70.8732 52.1628C70.8732 70.4292 56.0654 85.237 37.799 85.237Z" fill="white"/>
<path d="M29.8384 44.6153C28.1654 44.6153 26.809 43.2583 26.809 41.5852C26.809 39.912 28.1653 38.5552 29.8384 38.5552C31.5115 38.5552 32.8679 39.912 32.8679 41.5852C32.8679 43.2583 31.5116 44.6153 29.8384 44.6153Z" fill="#B0CA30"/>
<path d="M15.7775 64.2097L20.2318 61.3622L23.8203 55.7234L25.0017 49.0571L21.1585 48.7004L17.8509 50.8401C17.4064 51.1265 16.8193 51.046 16.4708 50.648L16.4518 50.6253C16.0651 50.1849 16.1057 49.5154 16.5442 49.1258L19.5044 46.4944C19.8236 46.211 20.2318 46.0475 20.659 46.0308L28.0449 45.6197C28.2728 45.6066 28.4846 45.6238 28.4846 45.6238C28.5795 45.6315 28.6756 45.644 28.7711 45.659C29.3093 45.7515 29.7927 45.9746 30.1943 46.2885L35.6259 49.5686L39.0468 47.6537C39.5773 47.3566 40.2486 47.5332 40.5648 48.0535L40.6072 48.1245C40.7635 48.3828 40.8113 48.6913 40.7391 48.9843C40.6657 49.2755 40.4801 49.5273 40.2206 49.6812L36.144 52.1145C35.6374 52.4176 35.0186 52.4726 34.4654 52.2637L31.0255 50.9629L29.8811 55.5807L34.7118 55.5621C35.3539 55.5597 35.9619 55.845 36.3707 56.3379C36.78 56.8324 36.9453 57.4829 36.8236 58.1124L35.5437 64.7046C35.4017 65.435 34.7101 65.9236 33.9744 65.8133L33.9195 65.805C33.1909 65.6958 32.6753 65.0388 32.7422 64.3049L33.1754 59.5814L26.453 59.7939L23.3042 62.9676C22.8656 63.4086 22.3645 63.7858 21.8179 64.0841L17.1404 66.638C16.4847 66.9774 15.6784 66.7346 15.3193 66.0902L15.293 66.046C14.9349 65.4018 15.1486 64.5915 15.7775 64.2097Z" fill="#B0CA30"/>
<path d="M42.2124 40.9018L49.3302 36.0408H31.134V33.2632H52.9189V69.3733H49.3302L42.2124 74.2343V72.8454V69.3733H33.5334V66.5956H42.2124V40.9018Z" fill="#B0CA30"/>
</svg>
